<mxfile host="app.diagrams.net" modified="2024-04-29T08:41:20.945Z" agent="Mozilla/5.0 (Windows NT 10.0; Win64; x64) AppleWebKit/537.36 (KHTML, like Gecko) Chrome/124.0.0.0 Safari/537.36" etag="xZDI7ROH_2HYRvnwgTQ6" version="24.2.5" type="google">
  <diagram name="Page-1" id="NW4QXJzCwJxp-aU1Qi3u">
    <mxGraphModel dx="2849" dy="1056" grid="0" gridSize="10" guides="1" tooltips="1" connect="1" arrows="1" fold="1" page="0" pageScale="1" pageWidth="850" pageHeight="1100" math="0" shadow="0">
      <root>
        <mxCell id="0" />
        <mxCell id="1" parent="0" />
        <mxCell id="pWIoLYJeCG_TWPPdTEtt-1" value="Event" style="shape=table;startSize=30;container=1;collapsible=1;childLayout=tableLayout;fixedRows=1;rowLines=0;fontStyle=0;align=center;resizeLast=1;html=1;shadow=1;" parent="1" vertex="1">
          <mxGeometry x="-54" y="249" width="180" height="120" as="geometry">
            <mxRectangle x="70" y="240" width="70" height="30" as="alternateBounds" />
          </mxGeometry>
        </mxCell>
        <mxCell id="pWIoLYJeCG_TWPPdTEtt-2" value="" style="shape=tableRow;horizontal=0;startSize=0;swimlaneHead=0;swimlaneBody=0;collapsible=0;dropTarget=0;points=[[0,0.5],[1,0.5]];portConstraint=eastwest;top=0;left=0;right=0;bottom=1;fontStyle=0;shadow=1;" parent="pWIoLYJeCG_TWPPdTEtt-1" vertex="1">
          <mxGeometry y="30" width="180" height="30" as="geometry" />
        </mxCell>
        <mxCell id="pWIoLYJeCG_TWPPdTEtt-3" value="PK" style="shape=partialRectangle;connectable=0;top=0;left=0;bottom=0;right=0;fontStyle=0;overflow=hidden;whiteSpace=wrap;html=1;shadow=1;" parent="pWIoLYJeCG_TWPPdTEtt-2" vertex="1">
          <mxGeometry width="30" height="30" as="geometry">
            <mxRectangle width="30" height="30" as="alternateBounds" />
          </mxGeometry>
        </mxCell>
        <mxCell id="pWIoLYJeCG_TWPPdTEtt-4" value="Id" style="shape=partialRectangle;connectable=0;top=0;left=0;bottom=0;right=0;align=left;spacingLeft=6;fontStyle=4;overflow=hidden;whiteSpace=wrap;html=1;shadow=1;" parent="pWIoLYJeCG_TWPPdTEtt-2" vertex="1">
          <mxGeometry x="30" width="150" height="30" as="geometry">
            <mxRectangle width="150" height="30" as="alternateBounds" />
          </mxGeometry>
        </mxCell>
        <mxCell id="pWIoLYJeCG_TWPPdTEtt-5" value="" style="shape=tableRow;horizontal=0;startSize=0;swimlaneHead=0;swimlaneBody=0;collapsible=0;dropTarget=0;points=[[0,0.5],[1,0.5]];portConstraint=eastwest;top=0;left=0;right=0;bottom=0;fontStyle=0;shadow=1;" parent="pWIoLYJeCG_TWPPdTEtt-1" vertex="1">
          <mxGeometry y="60" width="180" height="30" as="geometry" />
        </mxCell>
        <mxCell id="pWIoLYJeCG_TWPPdTEtt-6" value="" style="shape=partialRectangle;connectable=0;top=0;left=0;bottom=0;right=0;editable=1;overflow=hidden;whiteSpace=wrap;html=1;fontStyle=0;shadow=1;" parent="pWIoLYJeCG_TWPPdTEtt-5" vertex="1">
          <mxGeometry width="30" height="30" as="geometry">
            <mxRectangle width="30" height="30" as="alternateBounds" />
          </mxGeometry>
        </mxCell>
        <mxCell id="pWIoLYJeCG_TWPPdTEtt-7" value="Name" style="shape=partialRectangle;connectable=0;top=0;left=0;bottom=0;right=0;align=left;spacingLeft=6;overflow=hidden;whiteSpace=wrap;html=1;fontStyle=0;shadow=1;" parent="pWIoLYJeCG_TWPPdTEtt-5" vertex="1">
          <mxGeometry x="30" width="150" height="30" as="geometry">
            <mxRectangle width="150" height="30" as="alternateBounds" />
          </mxGeometry>
        </mxCell>
        <mxCell id="pWIoLYJeCG_TWPPdTEtt-8" value="" style="shape=tableRow;horizontal=0;startSize=0;swimlaneHead=0;swimlaneBody=0;collapsible=0;dropTarget=0;points=[[0,0.5],[1,0.5]];portConstraint=eastwest;top=0;left=0;right=0;bottom=0;fontStyle=0;shadow=1;" parent="pWIoLYJeCG_TWPPdTEtt-1" vertex="1">
          <mxGeometry y="90" width="180" height="30" as="geometry" />
        </mxCell>
        <mxCell id="pWIoLYJeCG_TWPPdTEtt-9" value="" style="shape=partialRectangle;connectable=0;top=0;left=0;bottom=0;right=0;editable=1;overflow=hidden;whiteSpace=wrap;html=1;fontStyle=0;shadow=1;" parent="pWIoLYJeCG_TWPPdTEtt-8" vertex="1">
          <mxGeometry width="30" height="30" as="geometry">
            <mxRectangle width="30" height="30" as="alternateBounds" />
          </mxGeometry>
        </mxCell>
        <mxCell id="pWIoLYJeCG_TWPPdTEtt-10" value="Date" style="shape=partialRectangle;connectable=0;top=0;left=0;bottom=0;right=0;align=left;spacingLeft=6;overflow=hidden;whiteSpace=wrap;html=1;fontStyle=0;shadow=1;" parent="pWIoLYJeCG_TWPPdTEtt-8" vertex="1">
          <mxGeometry x="30" width="150" height="30" as="geometry">
            <mxRectangle width="150" height="30" as="alternateBounds" />
          </mxGeometry>
        </mxCell>
        <mxCell id="pWIoLYJeCG_TWPPdTEtt-37" value="Venue" style="shape=table;startSize=30;container=1;collapsible=1;childLayout=tableLayout;fixedRows=1;rowLines=0;fontStyle=0;align=center;resizeLast=1;html=1;shadow=1;" parent="1" vertex="1">
          <mxGeometry x="570" y="240" width="180" height="180" as="geometry">
            <mxRectangle x="70" y="240" width="70" height="30" as="alternateBounds" />
          </mxGeometry>
        </mxCell>
        <mxCell id="pWIoLYJeCG_TWPPdTEtt-38" value="" style="shape=tableRow;horizontal=0;startSize=0;swimlaneHead=0;swimlaneBody=0;collapsible=0;dropTarget=0;points=[[0,0.5],[1,0.5]];portConstraint=eastwest;top=0;left=0;right=0;bottom=1;fontStyle=0;shadow=1;" parent="pWIoLYJeCG_TWPPdTEtt-37" vertex="1">
          <mxGeometry y="30" width="180" height="30" as="geometry" />
        </mxCell>
        <mxCell id="pWIoLYJeCG_TWPPdTEtt-39" value="PK" style="shape=partialRectangle;connectable=0;top=0;left=0;bottom=0;right=0;fontStyle=0;overflow=hidden;whiteSpace=wrap;html=1;shadow=1;" parent="pWIoLYJeCG_TWPPdTEtt-38" vertex="1">
          <mxGeometry width="30" height="30" as="geometry">
            <mxRectangle width="30" height="30" as="alternateBounds" />
          </mxGeometry>
        </mxCell>
        <mxCell id="pWIoLYJeCG_TWPPdTEtt-40" value="Id" style="shape=partialRectangle;connectable=0;top=0;left=0;bottom=0;right=0;align=left;spacingLeft=6;fontStyle=4;overflow=hidden;whiteSpace=wrap;html=1;shadow=1;" parent="pWIoLYJeCG_TWPPdTEtt-38" vertex="1">
          <mxGeometry x="30" width="150" height="30" as="geometry">
            <mxRectangle width="150" height="30" as="alternateBounds" />
          </mxGeometry>
        </mxCell>
        <mxCell id="pWIoLYJeCG_TWPPdTEtt-41" value="" style="shape=tableRow;horizontal=0;startSize=0;swimlaneHead=0;swimlaneBody=0;collapsible=0;dropTarget=0;points=[[0,0.5],[1,0.5]];portConstraint=eastwest;top=0;left=0;right=0;bottom=0;fontStyle=0;shadow=1;" parent="pWIoLYJeCG_TWPPdTEtt-37" vertex="1">
          <mxGeometry y="60" width="180" height="30" as="geometry" />
        </mxCell>
        <mxCell id="pWIoLYJeCG_TWPPdTEtt-42" value="" style="shape=partialRectangle;connectable=0;top=0;left=0;bottom=0;right=0;editable=1;overflow=hidden;whiteSpace=wrap;html=1;fontStyle=0;shadow=1;" parent="pWIoLYJeCG_TWPPdTEtt-41" vertex="1">
          <mxGeometry width="30" height="30" as="geometry">
            <mxRectangle width="30" height="30" as="alternateBounds" />
          </mxGeometry>
        </mxCell>
        <mxCell id="pWIoLYJeCG_TWPPdTEtt-43" value="Name" style="shape=partialRectangle;connectable=0;top=0;left=0;bottom=0;right=0;align=left;spacingLeft=6;overflow=hidden;whiteSpace=wrap;html=1;fontStyle=0;shadow=1;" parent="pWIoLYJeCG_TWPPdTEtt-41" vertex="1">
          <mxGeometry x="30" width="150" height="30" as="geometry">
            <mxRectangle width="150" height="30" as="alternateBounds" />
          </mxGeometry>
        </mxCell>
        <mxCell id="pWIoLYJeCG_TWPPdTEtt-44" value="" style="shape=tableRow;horizontal=0;startSize=0;swimlaneHead=0;swimlaneBody=0;collapsible=0;dropTarget=0;points=[[0,0.5],[1,0.5]];portConstraint=eastwest;top=0;left=0;right=0;bottom=0;fontStyle=0;shadow=1;" parent="pWIoLYJeCG_TWPPdTEtt-37" vertex="1">
          <mxGeometry y="90" width="180" height="30" as="geometry" />
        </mxCell>
        <mxCell id="pWIoLYJeCG_TWPPdTEtt-45" value="" style="shape=partialRectangle;connectable=0;top=0;left=0;bottom=0;right=0;editable=1;overflow=hidden;whiteSpace=wrap;html=1;fontStyle=0;shadow=1;" parent="pWIoLYJeCG_TWPPdTEtt-44" vertex="1">
          <mxGeometry width="30" height="30" as="geometry">
            <mxRectangle width="30" height="30" as="alternateBounds" />
          </mxGeometry>
        </mxCell>
        <mxCell id="pWIoLYJeCG_TWPPdTEtt-46" value="Country" style="shape=partialRectangle;connectable=0;top=0;left=0;bottom=0;right=0;align=left;spacingLeft=6;overflow=hidden;whiteSpace=wrap;html=1;fontStyle=0;shadow=1;" parent="pWIoLYJeCG_TWPPdTEtt-44" vertex="1">
          <mxGeometry x="30" width="150" height="30" as="geometry">
            <mxRectangle width="150" height="30" as="alternateBounds" />
          </mxGeometry>
        </mxCell>
        <mxCell id="pWIoLYJeCG_TWPPdTEtt-47" style="shape=tableRow;horizontal=0;startSize=0;swimlaneHead=0;swimlaneBody=0;collapsible=0;dropTarget=0;points=[[0,0.5],[1,0.5]];portConstraint=eastwest;top=0;left=0;right=0;bottom=0;fontStyle=0;shadow=1;" parent="pWIoLYJeCG_TWPPdTEtt-37" vertex="1">
          <mxGeometry y="120" width="180" height="30" as="geometry" />
        </mxCell>
        <mxCell id="pWIoLYJeCG_TWPPdTEtt-48" style="shape=partialRectangle;connectable=0;top=0;left=0;bottom=0;right=0;editable=1;overflow=hidden;whiteSpace=wrap;html=1;fontStyle=0;shadow=1;" parent="pWIoLYJeCG_TWPPdTEtt-47" vertex="1">
          <mxGeometry width="30" height="30" as="geometry">
            <mxRectangle width="30" height="30" as="alternateBounds" />
          </mxGeometry>
        </mxCell>
        <mxCell id="pWIoLYJeCG_TWPPdTEtt-49" value="City" style="shape=partialRectangle;connectable=0;top=0;left=0;bottom=0;right=0;align=left;spacingLeft=6;overflow=hidden;whiteSpace=wrap;html=1;fontStyle=0;shadow=1;" parent="pWIoLYJeCG_TWPPdTEtt-47" vertex="1">
          <mxGeometry x="30" width="150" height="30" as="geometry">
            <mxRectangle width="150" height="30" as="alternateBounds" />
          </mxGeometry>
        </mxCell>
        <mxCell id="pWIoLYJeCG_TWPPdTEtt-50" style="shape=tableRow;horizontal=0;startSize=0;swimlaneHead=0;swimlaneBody=0;collapsible=0;dropTarget=0;points=[[0,0.5],[1,0.5]];portConstraint=eastwest;top=0;left=0;right=0;bottom=0;fontStyle=0;shadow=1;" parent="pWIoLYJeCG_TWPPdTEtt-37" vertex="1">
          <mxGeometry y="150" width="180" height="30" as="geometry" />
        </mxCell>
        <mxCell id="pWIoLYJeCG_TWPPdTEtt-51" style="shape=partialRectangle;connectable=0;top=0;left=0;bottom=0;right=0;editable=1;overflow=hidden;whiteSpace=wrap;html=1;fontStyle=0;shadow=1;" parent="pWIoLYJeCG_TWPPdTEtt-50" vertex="1">
          <mxGeometry width="30" height="30" as="geometry">
            <mxRectangle width="30" height="30" as="alternateBounds" />
          </mxGeometry>
        </mxCell>
        <mxCell id="pWIoLYJeCG_TWPPdTEtt-52" value="Address" style="shape=partialRectangle;connectable=0;top=0;left=0;bottom=0;right=0;align=left;spacingLeft=6;overflow=hidden;whiteSpace=wrap;html=1;fontStyle=0;shadow=1;" parent="pWIoLYJeCG_TWPPdTEtt-50" vertex="1">
          <mxGeometry x="30" width="150" height="30" as="geometry">
            <mxRectangle width="150" height="30" as="alternateBounds" />
          </mxGeometry>
        </mxCell>
        <mxCell id="pWIoLYJeCG_TWPPdTEtt-53" value="EventVenue" style="shape=table;startSize=30;container=1;collapsible=1;childLayout=tableLayout;fixedRows=1;rowLines=0;fontStyle=0;align=center;resizeLast=1;html=1;shadow=1;" parent="1" vertex="1">
          <mxGeometry x="320" y="240" width="180" height="110" as="geometry">
            <mxRectangle x="70" y="240" width="70" height="30" as="alternateBounds" />
          </mxGeometry>
        </mxCell>
        <mxCell id="pWIoLYJeCG_TWPPdTEtt-54" value="" style="shape=tableRow;horizontal=0;startSize=0;swimlaneHead=0;swimlaneBody=0;collapsible=0;dropTarget=0;points=[[0,0.5],[1,0.5]];portConstraint=eastwest;top=0;left=0;right=0;bottom=1;fontStyle=0;shadow=1;" parent="pWIoLYJeCG_TWPPdTEtt-53" vertex="1">
          <mxGeometry y="30" width="180" height="20" as="geometry" />
        </mxCell>
        <mxCell id="pWIoLYJeCG_TWPPdTEtt-55" value="PK" style="shape=partialRectangle;connectable=0;top=0;left=0;bottom=0;right=0;fontStyle=0;overflow=hidden;whiteSpace=wrap;html=1;shadow=1;" parent="pWIoLYJeCG_TWPPdTEtt-54" vertex="1">
          <mxGeometry width="30" height="20" as="geometry">
            <mxRectangle width="30" height="20" as="alternateBounds" />
          </mxGeometry>
        </mxCell>
        <mxCell id="pWIoLYJeCG_TWPPdTEtt-56" value="Id" style="shape=partialRectangle;connectable=0;top=0;left=0;bottom=0;right=0;align=left;spacingLeft=6;fontStyle=4;overflow=hidden;whiteSpace=wrap;html=1;shadow=1;" parent="pWIoLYJeCG_TWPPdTEtt-54" vertex="1">
          <mxGeometry x="30" width="150" height="20" as="geometry">
            <mxRectangle width="150" height="20" as="alternateBounds" />
          </mxGeometry>
        </mxCell>
        <mxCell id="pWIoLYJeCG_TWPPdTEtt-57" value="" style="shape=tableRow;horizontal=0;startSize=0;swimlaneHead=0;swimlaneBody=0;collapsible=0;dropTarget=0;points=[[0,0.5],[1,0.5]];portConstraint=eastwest;top=0;left=0;right=0;bottom=0;fontStyle=0;shadow=1;" parent="pWIoLYJeCG_TWPPdTEtt-53" vertex="1">
          <mxGeometry y="50" width="180" height="30" as="geometry" />
        </mxCell>
        <mxCell id="pWIoLYJeCG_TWPPdTEtt-58" value="FK" style="shape=partialRectangle;connectable=0;top=0;left=0;bottom=0;right=0;editable=1;overflow=hidden;whiteSpace=wrap;html=1;fontStyle=0;shadow=1;" parent="pWIoLYJeCG_TWPPdTEtt-57" vertex="1">
          <mxGeometry width="30" height="30" as="geometry">
            <mxRectangle width="30" height="30" as="alternateBounds" />
          </mxGeometry>
        </mxCell>
        <mxCell id="pWIoLYJeCG_TWPPdTEtt-59" value="EventId" style="shape=partialRectangle;connectable=0;top=0;left=0;bottom=0;right=0;align=left;spacingLeft=6;overflow=hidden;whiteSpace=wrap;html=1;fontStyle=0;shadow=1;" parent="pWIoLYJeCG_TWPPdTEtt-57" vertex="1">
          <mxGeometry x="30" width="150" height="30" as="geometry">
            <mxRectangle width="150" height="30" as="alternateBounds" />
          </mxGeometry>
        </mxCell>
        <mxCell id="pWIoLYJeCG_TWPPdTEtt-60" value="" style="shape=tableRow;horizontal=0;startSize=0;swimlaneHead=0;swimlaneBody=0;collapsible=0;dropTarget=0;points=[[0,0.5],[1,0.5]];portConstraint=eastwest;top=0;left=0;right=0;bottom=0;fontStyle=0;shadow=1;" parent="pWIoLYJeCG_TWPPdTEtt-53" vertex="1">
          <mxGeometry y="80" width="180" height="30" as="geometry" />
        </mxCell>
        <mxCell id="pWIoLYJeCG_TWPPdTEtt-61" value="FK" style="shape=partialRectangle;connectable=0;top=0;left=0;bottom=0;right=0;editable=1;overflow=hidden;whiteSpace=wrap;html=1;fontStyle=0;shadow=1;" parent="pWIoLYJeCG_TWPPdTEtt-60" vertex="1">
          <mxGeometry width="30" height="30" as="geometry">
            <mxRectangle width="30" height="30" as="alternateBounds" />
          </mxGeometry>
        </mxCell>
        <mxCell id="pWIoLYJeCG_TWPPdTEtt-62" value="VenueId" style="shape=partialRectangle;connectable=0;top=0;left=0;bottom=0;right=0;align=left;spacingLeft=6;overflow=hidden;whiteSpace=wrap;html=1;fontStyle=0;shadow=1;" parent="pWIoLYJeCG_TWPPdTEtt-60" vertex="1">
          <mxGeometry x="30" width="150" height="30" as="geometry">
            <mxRectangle width="150" height="30" as="alternateBounds" />
          </mxGeometry>
        </mxCell>
        <mxCell id="pWIoLYJeCG_TWPPdTEtt-68" value="" style="edgeStyle=entityRelationEdgeStyle;fontSize=12;html=1;endArrow=ERoneToMany;startArrow=ERmandOne;rounded=0;fontStyle=0;fontColor=#000000;shadow=1;" parent="1" target="pWIoLYJeCG_TWPPdTEtt-54" edge="1">
          <mxGeometry width="100" height="100" relative="1" as="geometry">
            <mxPoint x="125" y="311" as="sourcePoint" />
            <mxPoint x="190" y="285" as="targetPoint" />
            <Array as="points">
              <mxPoint x="150" y="305" />
              <mxPoint x="150" y="295" />
              <mxPoint x="150" y="295" />
              <mxPoint x="140" y="295" />
            </Array>
          </mxGeometry>
        </mxCell>
        <mxCell id="pWIoLYJeCG_TWPPdTEtt-69" value="" style="edgeStyle=entityRelationEdgeStyle;fontSize=12;html=1;endArrow=ERoneToMany;startArrow=ERmandOne;rounded=0;exitX=-0.015;exitY=0.935;exitDx=0;exitDy=0;exitPerimeter=0;fontStyle=0;fontColor=#000000;shadow=1;" parent="1" source="pWIoLYJeCG_TWPPdTEtt-41" target="pWIoLYJeCG_TWPPdTEtt-54" edge="1">
          <mxGeometry width="100" height="100" relative="1" as="geometry">
            <mxPoint x="600" y="320" as="sourcePoint" />
            <mxPoint x="540" y="280" as="targetPoint" />
            <Array as="points">
              <mxPoint x="530" y="365" />
              <mxPoint x="570" y="245" />
              <mxPoint x="530" y="365" />
              <mxPoint x="550" y="225" />
            </Array>
          </mxGeometry>
        </mxCell>
        <mxCell id="pWIoLYJeCG_TWPPdTEtt-71" value="Manifest" style="shape=table;startSize=30;container=1;collapsible=1;childLayout=tableLayout;fixedRows=1;rowLines=0;fontStyle=0;align=center;resizeLast=1;html=1;shadow=1;" parent="1" vertex="1">
          <mxGeometry x="570" y="480" width="180" height="90" as="geometry">
            <mxRectangle x="70" y="240" width="70" height="30" as="alternateBounds" />
          </mxGeometry>
        </mxCell>
        <mxCell id="pWIoLYJeCG_TWPPdTEtt-72" value="" style="shape=tableRow;horizontal=0;startSize=0;swimlaneHead=0;swimlaneBody=0;collapsible=0;dropTarget=0;points=[[0,0.5],[1,0.5]];portConstraint=eastwest;top=0;left=0;right=0;bottom=1;fontStyle=0;shadow=1;" parent="pWIoLYJeCG_TWPPdTEtt-71" vertex="1">
          <mxGeometry y="30" width="180" height="30" as="geometry" />
        </mxCell>
        <mxCell id="pWIoLYJeCG_TWPPdTEtt-73" value="PK" style="shape=partialRectangle;connectable=0;top=0;left=0;bottom=0;right=0;fontStyle=0;overflow=hidden;whiteSpace=wrap;html=1;shadow=1;" parent="pWIoLYJeCG_TWPPdTEtt-72" vertex="1">
          <mxGeometry width="30" height="30" as="geometry">
            <mxRectangle width="30" height="30" as="alternateBounds" />
          </mxGeometry>
        </mxCell>
        <mxCell id="pWIoLYJeCG_TWPPdTEtt-74" value="Id" style="shape=partialRectangle;connectable=0;top=0;left=0;bottom=0;right=0;align=left;spacingLeft=6;fontStyle=4;overflow=hidden;whiteSpace=wrap;html=1;shadow=1;" parent="pWIoLYJeCG_TWPPdTEtt-72" vertex="1">
          <mxGeometry x="30" width="150" height="30" as="geometry">
            <mxRectangle width="150" height="30" as="alternateBounds" />
          </mxGeometry>
        </mxCell>
        <mxCell id="pWIoLYJeCG_TWPPdTEtt-75" value="" style="shape=tableRow;horizontal=0;startSize=0;swimlaneHead=0;swimlaneBody=0;collapsible=0;dropTarget=0;points=[[0,0.5],[1,0.5]];portConstraint=eastwest;top=0;left=0;right=0;bottom=0;fontStyle=0;shadow=1;" parent="pWIoLYJeCG_TWPPdTEtt-71" vertex="1">
          <mxGeometry y="60" width="180" height="30" as="geometry" />
        </mxCell>
        <mxCell id="pWIoLYJeCG_TWPPdTEtt-76" value="FK" style="shape=partialRectangle;connectable=0;top=0;left=0;bottom=0;right=0;editable=1;overflow=hidden;whiteSpace=wrap;html=1;fontStyle=0;shadow=1;" parent="pWIoLYJeCG_TWPPdTEtt-75" vertex="1">
          <mxGeometry width="30" height="30" as="geometry">
            <mxRectangle width="30" height="30" as="alternateBounds" />
          </mxGeometry>
        </mxCell>
        <mxCell id="pWIoLYJeCG_TWPPdTEtt-77" value="&lt;font data-sider-select-id=&quot;88cc9239-650e-4305-b013-d570aee68462&quot;&gt;VenueId&lt;/font&gt;" style="shape=partialRectangle;connectable=0;top=0;left=0;bottom=0;right=0;align=left;spacingLeft=6;overflow=hidden;whiteSpace=wrap;html=1;fontStyle=0;shadow=1;" parent="pWIoLYJeCG_TWPPdTEtt-75" vertex="1">
          <mxGeometry x="30" width="150" height="30" as="geometry">
            <mxRectangle width="150" height="30" as="alternateBounds" />
          </mxGeometry>
        </mxCell>
        <mxCell id="pWIoLYJeCG_TWPPdTEtt-87" value="" style="edgeStyle=entityRelationEdgeStyle;fontSize=12;html=1;endArrow=ERmandOne;startArrow=ERmandOne;rounded=0;fontStyle=0;fontColor=#000000;shadow=1;" parent="1" source="pWIoLYJeCG_TWPPdTEtt-72" target="pWIoLYJeCG_TWPPdTEtt-50" edge="1">
          <mxGeometry width="100" height="100" relative="1" as="geometry">
            <mxPoint x="510" y="520" as="sourcePoint" />
            <mxPoint x="610" y="420" as="targetPoint" />
            <Array as="points">
              <mxPoint x="660" y="410" />
            </Array>
          </mxGeometry>
        </mxCell>
        <mxCell id="pWIoLYJeCG_TWPPdTEtt-88" value="Section" style="shape=table;startSize=30;container=1;collapsible=1;childLayout=tableLayout;fixedRows=1;rowLines=0;fontStyle=0;align=center;resizeLast=1;html=1;shadow=1;" parent="1" vertex="1">
          <mxGeometry x="570" y="640" width="180" height="120" as="geometry">
            <mxRectangle x="70" y="240" width="70" height="30" as="alternateBounds" />
          </mxGeometry>
        </mxCell>
        <mxCell id="pWIoLYJeCG_TWPPdTEtt-89" value="" style="shape=tableRow;horizontal=0;startSize=0;swimlaneHead=0;swimlaneBody=0;collapsible=0;dropTarget=0;points=[[0,0.5],[1,0.5]];portConstraint=eastwest;top=0;left=0;right=0;bottom=1;fontStyle=0;shadow=1;" parent="pWIoLYJeCG_TWPPdTEtt-88" vertex="1">
          <mxGeometry y="30" width="180" height="30" as="geometry" />
        </mxCell>
        <mxCell id="pWIoLYJeCG_TWPPdTEtt-90" value="PK" style="shape=partialRectangle;connectable=0;top=0;left=0;bottom=0;right=0;fontStyle=0;overflow=hidden;whiteSpace=wrap;html=1;shadow=1;" parent="pWIoLYJeCG_TWPPdTEtt-89" vertex="1">
          <mxGeometry width="30" height="30" as="geometry">
            <mxRectangle width="30" height="30" as="alternateBounds" />
          </mxGeometry>
        </mxCell>
        <mxCell id="pWIoLYJeCG_TWPPdTEtt-91" value="Id" style="shape=partialRectangle;connectable=0;top=0;left=0;bottom=0;right=0;align=left;spacingLeft=6;fontStyle=4;overflow=hidden;whiteSpace=wrap;html=1;shadow=1;" parent="pWIoLYJeCG_TWPPdTEtt-89" vertex="1">
          <mxGeometry x="30" width="150" height="30" as="geometry">
            <mxRectangle width="150" height="30" as="alternateBounds" />
          </mxGeometry>
        </mxCell>
        <mxCell id="pWIoLYJeCG_TWPPdTEtt-92" value="" style="shape=tableRow;horizontal=0;startSize=0;swimlaneHead=0;swimlaneBody=0;collapsible=0;dropTarget=0;points=[[0,0.5],[1,0.5]];portConstraint=eastwest;top=0;left=0;right=0;bottom=0;fontStyle=0;shadow=1;" parent="pWIoLYJeCG_TWPPdTEtt-88" vertex="1">
          <mxGeometry y="60" width="180" height="30" as="geometry" />
        </mxCell>
        <mxCell id="pWIoLYJeCG_TWPPdTEtt-93" value="" style="shape=partialRectangle;connectable=0;top=0;left=0;bottom=0;right=0;editable=1;overflow=hidden;whiteSpace=wrap;html=1;fontStyle=0;shadow=1;" parent="pWIoLYJeCG_TWPPdTEtt-92" vertex="1">
          <mxGeometry width="30" height="30" as="geometry">
            <mxRectangle width="30" height="30" as="alternateBounds" />
          </mxGeometry>
        </mxCell>
        <mxCell id="pWIoLYJeCG_TWPPdTEtt-94" value="Name" style="shape=partialRectangle;connectable=0;top=0;left=0;bottom=0;right=0;align=left;spacingLeft=6;overflow=hidden;whiteSpace=wrap;html=1;fontStyle=0;shadow=1;" parent="pWIoLYJeCG_TWPPdTEtt-92" vertex="1">
          <mxGeometry x="30" width="150" height="30" as="geometry">
            <mxRectangle width="150" height="30" as="alternateBounds" />
          </mxGeometry>
        </mxCell>
        <mxCell id="pWIoLYJeCG_TWPPdTEtt-99" style="shape=tableRow;horizontal=0;startSize=0;swimlaneHead=0;swimlaneBody=0;collapsible=0;dropTarget=0;points=[[0,0.5],[1,0.5]];portConstraint=eastwest;top=0;left=0;right=0;bottom=0;fontStyle=0;shadow=1;" parent="pWIoLYJeCG_TWPPdTEtt-88" vertex="1">
          <mxGeometry y="90" width="180" height="30" as="geometry" />
        </mxCell>
        <mxCell id="pWIoLYJeCG_TWPPdTEtt-100" value="FK" style="shape=partialRectangle;connectable=0;top=0;left=0;bottom=0;right=0;editable=1;overflow=hidden;whiteSpace=wrap;html=1;fontStyle=0;shadow=1;" parent="pWIoLYJeCG_TWPPdTEtt-99" vertex="1">
          <mxGeometry width="30" height="30" as="geometry">
            <mxRectangle width="30" height="30" as="alternateBounds" />
          </mxGeometry>
        </mxCell>
        <mxCell id="pWIoLYJeCG_TWPPdTEtt-101" value="&lt;font data-sider-select-id=&quot;ca560566-6d3f-4e3c-b402-fe68da57a6e4&quot;&gt;ManifestId&lt;/font&gt;" style="shape=partialRectangle;connectable=0;top=0;left=0;bottom=0;right=0;align=left;spacingLeft=6;overflow=hidden;whiteSpace=wrap;html=1;fontStyle=0;shadow=1;" parent="pWIoLYJeCG_TWPPdTEtt-99" vertex="1">
          <mxGeometry x="30" width="150" height="30" as="geometry">
            <mxRectangle width="150" height="30" as="alternateBounds" />
          </mxGeometry>
        </mxCell>
        <mxCell id="pWIoLYJeCG_TWPPdTEtt-95" value="" style="edgeStyle=entityRelationEdgeStyle;fontSize=12;html=1;endArrow=ERoneToMany;startArrow=ERmandOne;rounded=0;fontStyle=0;fontColor=#000000;shadow=1;" parent="1" source="pWIoLYJeCG_TWPPdTEtt-75" target="pWIoLYJeCG_TWPPdTEtt-88" edge="1">
          <mxGeometry width="100" height="100" relative="1" as="geometry">
            <mxPoint x="510" y="620" as="sourcePoint" />
            <mxPoint x="610" y="520" as="targetPoint" />
            <Array as="points">
              <mxPoint x="650" y="650" />
            </Array>
          </mxGeometry>
        </mxCell>
        <mxCell id="pWIoLYJeCG_TWPPdTEtt-102" value="Row" style="shape=table;startSize=30;container=1;collapsible=1;childLayout=tableLayout;fixedRows=1;rowLines=0;fontStyle=0;align=center;resizeLast=1;html=1;shadow=1;" parent="1" vertex="1">
          <mxGeometry x="636" y="843" width="180" height="120" as="geometry">
            <mxRectangle x="70" y="240" width="70" height="30" as="alternateBounds" />
          </mxGeometry>
        </mxCell>
        <mxCell id="pWIoLYJeCG_TWPPdTEtt-103" value="" style="shape=tableRow;horizontal=0;startSize=0;swimlaneHead=0;swimlaneBody=0;collapsible=0;dropTarget=0;points=[[0,0.5],[1,0.5]];portConstraint=eastwest;top=0;left=0;right=0;bottom=1;fontStyle=0;shadow=1;" parent="pWIoLYJeCG_TWPPdTEtt-102" vertex="1">
          <mxGeometry y="30" width="180" height="30" as="geometry" />
        </mxCell>
        <mxCell id="pWIoLYJeCG_TWPPdTEtt-104" value="PK" style="shape=partialRectangle;connectable=0;top=0;left=0;bottom=0;right=0;fontStyle=0;overflow=hidden;whiteSpace=wrap;html=1;shadow=1;" parent="pWIoLYJeCG_TWPPdTEtt-103" vertex="1">
          <mxGeometry width="30" height="30" as="geometry">
            <mxRectangle width="30" height="30" as="alternateBounds" />
          </mxGeometry>
        </mxCell>
        <mxCell id="pWIoLYJeCG_TWPPdTEtt-105" value="Id" style="shape=partialRectangle;connectable=0;top=0;left=0;bottom=0;right=0;align=left;spacingLeft=6;fontStyle=4;overflow=hidden;whiteSpace=wrap;html=1;shadow=1;" parent="pWIoLYJeCG_TWPPdTEtt-103" vertex="1">
          <mxGeometry x="30" width="150" height="30" as="geometry">
            <mxRectangle width="150" height="30" as="alternateBounds" />
          </mxGeometry>
        </mxCell>
        <mxCell id="pWIoLYJeCG_TWPPdTEtt-106" value="" style="shape=tableRow;horizontal=0;startSize=0;swimlaneHead=0;swimlaneBody=0;collapsible=0;dropTarget=0;points=[[0,0.5],[1,0.5]];portConstraint=eastwest;top=0;left=0;right=0;bottom=0;fontStyle=0;shadow=1;" parent="pWIoLYJeCG_TWPPdTEtt-102" vertex="1">
          <mxGeometry y="60" width="180" height="30" as="geometry" />
        </mxCell>
        <mxCell id="pWIoLYJeCG_TWPPdTEtt-107" value="" style="shape=partialRectangle;connectable=0;top=0;left=0;bottom=0;right=0;editable=1;overflow=hidden;whiteSpace=wrap;html=1;fontStyle=0;shadow=1;" parent="pWIoLYJeCG_TWPPdTEtt-106" vertex="1">
          <mxGeometry width="30" height="30" as="geometry">
            <mxRectangle width="30" height="30" as="alternateBounds" />
          </mxGeometry>
        </mxCell>
        <mxCell id="pWIoLYJeCG_TWPPdTEtt-108" value="Number" style="shape=partialRectangle;connectable=0;top=0;left=0;bottom=0;right=0;align=left;spacingLeft=6;overflow=hidden;whiteSpace=wrap;html=1;fontStyle=0;shadow=1;" parent="pWIoLYJeCG_TWPPdTEtt-106" vertex="1">
          <mxGeometry x="30" width="150" height="30" as="geometry">
            <mxRectangle width="150" height="30" as="alternateBounds" />
          </mxGeometry>
        </mxCell>
        <mxCell id="pWIoLYJeCG_TWPPdTEtt-109" style="shape=tableRow;horizontal=0;startSize=0;swimlaneHead=0;swimlaneBody=0;collapsible=0;dropTarget=0;points=[[0,0.5],[1,0.5]];portConstraint=eastwest;top=0;left=0;right=0;bottom=0;fontStyle=0;shadow=1;" parent="pWIoLYJeCG_TWPPdTEtt-102" vertex="1">
          <mxGeometry y="90" width="180" height="30" as="geometry" />
        </mxCell>
        <mxCell id="pWIoLYJeCG_TWPPdTEtt-110" value="FK" style="shape=partialRectangle;connectable=0;top=0;left=0;bottom=0;right=0;editable=1;overflow=hidden;whiteSpace=wrap;html=1;fontStyle=0;shadow=1;" parent="pWIoLYJeCG_TWPPdTEtt-109" vertex="1">
          <mxGeometry width="30" height="30" as="geometry">
            <mxRectangle width="30" height="30" as="alternateBounds" />
          </mxGeometry>
        </mxCell>
        <mxCell id="pWIoLYJeCG_TWPPdTEtt-111" value="&lt;font data-sider-select-id=&quot;ad331467-42c6-40a4-8bbc-b79c47bfc9da&quot;&gt;SectionId&lt;/font&gt;" style="shape=partialRectangle;connectable=0;top=0;left=0;bottom=0;right=0;align=left;spacingLeft=6;overflow=hidden;whiteSpace=wrap;html=1;fontStyle=0;shadow=1;" parent="pWIoLYJeCG_TWPPdTEtt-109" vertex="1">
          <mxGeometry x="30" width="150" height="30" as="geometry">
            <mxRectangle width="150" height="30" as="alternateBounds" />
          </mxGeometry>
        </mxCell>
        <mxCell id="pWIoLYJeCG_TWPPdTEtt-116" value="Seat" style="shape=table;startSize=30;container=1;collapsible=1;childLayout=tableLayout;fixedRows=1;rowLines=0;fontStyle=0;align=center;resizeLast=1;html=1;shadow=1;" parent="1" vertex="1">
          <mxGeometry x="338" y="813" width="180" height="150" as="geometry">
            <mxRectangle x="70" y="240" width="70" height="30" as="alternateBounds" />
          </mxGeometry>
        </mxCell>
        <mxCell id="pWIoLYJeCG_TWPPdTEtt-117" value="" style="shape=tableRow;horizontal=0;startSize=0;swimlaneHead=0;swimlaneBody=0;collapsible=0;dropTarget=0;points=[[0,0.5],[1,0.5]];portConstraint=eastwest;top=0;left=0;right=0;bottom=1;fontStyle=0;shadow=1;" parent="pWIoLYJeCG_TWPPdTEtt-116" vertex="1">
          <mxGeometry y="30" width="180" height="30" as="geometry" />
        </mxCell>
        <mxCell id="pWIoLYJeCG_TWPPdTEtt-118" value="PK" style="shape=partialRectangle;connectable=0;top=0;left=0;bottom=0;right=0;fontStyle=0;overflow=hidden;whiteSpace=wrap;html=1;shadow=1;" parent="pWIoLYJeCG_TWPPdTEtt-117" vertex="1">
          <mxGeometry width="30" height="30" as="geometry">
            <mxRectangle width="30" height="30" as="alternateBounds" />
          </mxGeometry>
        </mxCell>
        <mxCell id="pWIoLYJeCG_TWPPdTEtt-119" value="Id" style="shape=partialRectangle;connectable=0;top=0;left=0;bottom=0;right=0;align=left;spacingLeft=6;fontStyle=4;overflow=hidden;whiteSpace=wrap;html=1;shadow=1;" parent="pWIoLYJeCG_TWPPdTEtt-117" vertex="1">
          <mxGeometry x="30" width="150" height="30" as="geometry">
            <mxRectangle width="150" height="30" as="alternateBounds" />
          </mxGeometry>
        </mxCell>
        <mxCell id="pWIoLYJeCG_TWPPdTEtt-120" value="" style="shape=tableRow;horizontal=0;startSize=0;swimlaneHead=0;swimlaneBody=0;collapsible=0;dropTarget=0;points=[[0,0.5],[1,0.5]];portConstraint=eastwest;top=0;left=0;right=0;bottom=0;fontStyle=0;shadow=1;" parent="pWIoLYJeCG_TWPPdTEtt-116" vertex="1">
          <mxGeometry y="60" width="180" height="30" as="geometry" />
        </mxCell>
        <mxCell id="pWIoLYJeCG_TWPPdTEtt-121" value="" style="shape=partialRectangle;connectable=0;top=0;left=0;bottom=0;right=0;editable=1;overflow=hidden;whiteSpace=wrap;html=1;fontStyle=0;shadow=1;" parent="pWIoLYJeCG_TWPPdTEtt-120" vertex="1">
          <mxGeometry width="30" height="30" as="geometry">
            <mxRectangle width="30" height="30" as="alternateBounds" />
          </mxGeometry>
        </mxCell>
        <mxCell id="pWIoLYJeCG_TWPPdTEtt-122" value="Number" style="shape=partialRectangle;connectable=0;top=0;left=0;bottom=0;right=0;align=left;spacingLeft=6;overflow=hidden;whiteSpace=wrap;html=1;fontStyle=0;shadow=1;" parent="pWIoLYJeCG_TWPPdTEtt-120" vertex="1">
          <mxGeometry x="30" width="150" height="30" as="geometry">
            <mxRectangle width="150" height="30" as="alternateBounds" />
          </mxGeometry>
        </mxCell>
        <mxCell id="pWIoLYJeCG_TWPPdTEtt-123" style="shape=tableRow;horizontal=0;startSize=0;swimlaneHead=0;swimlaneBody=0;collapsible=0;dropTarget=0;points=[[0,0.5],[1,0.5]];portConstraint=eastwest;top=0;left=0;right=0;bottom=0;fontStyle=0;shadow=1;" parent="pWIoLYJeCG_TWPPdTEtt-116" vertex="1">
          <mxGeometry y="90" width="180" height="30" as="geometry" />
        </mxCell>
        <mxCell id="pWIoLYJeCG_TWPPdTEtt-124" value="FK" style="shape=partialRectangle;connectable=0;top=0;left=0;bottom=0;right=0;editable=1;overflow=hidden;whiteSpace=wrap;html=1;fontStyle=0;shadow=1;" parent="pWIoLYJeCG_TWPPdTEtt-123" vertex="1">
          <mxGeometry width="30" height="30" as="geometry">
            <mxRectangle width="30" height="30" as="alternateBounds" />
          </mxGeometry>
        </mxCell>
        <mxCell id="pWIoLYJeCG_TWPPdTEtt-125" value="&lt;font data-sider-select-id=&quot;22511679-94eb-45bf-bc14-c3a91e960dca&quot;&gt;RowId&lt;/font&gt;" style="shape=partialRectangle;connectable=0;top=0;left=0;bottom=0;right=0;align=left;spacingLeft=6;overflow=hidden;whiteSpace=wrap;html=1;fontStyle=0;shadow=1;" parent="pWIoLYJeCG_TWPPdTEtt-123" vertex="1">
          <mxGeometry x="30" width="150" height="30" as="geometry">
            <mxRectangle width="150" height="30" as="alternateBounds" />
          </mxGeometry>
        </mxCell>
        <mxCell id="pWIoLYJeCG_TWPPdTEtt-137" style="shape=tableRow;horizontal=0;startSize=0;swimlaneHead=0;swimlaneBody=0;collapsible=0;dropTarget=0;points=[[0,0.5],[1,0.5]];portConstraint=eastwest;top=0;left=0;right=0;bottom=0;fontStyle=0;shadow=1;" parent="pWIoLYJeCG_TWPPdTEtt-116" vertex="1">
          <mxGeometry y="120" width="180" height="30" as="geometry" />
        </mxCell>
        <mxCell id="pWIoLYJeCG_TWPPdTEtt-138" value="FK" style="shape=partialRectangle;connectable=0;top=0;left=0;bottom=0;right=0;editable=1;overflow=hidden;whiteSpace=wrap;html=1;fontStyle=0;shadow=1;" parent="pWIoLYJeCG_TWPPdTEtt-137" vertex="1">
          <mxGeometry width="30" height="30" as="geometry">
            <mxRectangle width="30" height="30" as="alternateBounds" />
          </mxGeometry>
        </mxCell>
        <mxCell id="pWIoLYJeCG_TWPPdTEtt-139" value="&lt;font data-sider-select-id=&quot;d216b711-dd54-4e8a-83e9-0bd260aecd40&quot;&gt;StatusId&lt;/font&gt;" style="shape=partialRectangle;connectable=0;top=0;left=0;bottom=0;right=0;align=left;spacingLeft=6;overflow=hidden;whiteSpace=wrap;html=1;fontStyle=0;shadow=1;" parent="pWIoLYJeCG_TWPPdTEtt-137" vertex="1">
          <mxGeometry x="30" width="150" height="30" as="geometry">
            <mxRectangle width="150" height="30" as="alternateBounds" />
          </mxGeometry>
        </mxCell>
        <mxCell id="pWIoLYJeCG_TWPPdTEtt-127" value="Seat Status" style="shape=table;startSize=30;container=1;collapsible=1;childLayout=tableLayout;fixedRows=1;rowLines=0;fontStyle=0;align=center;resizeLast=1;html=1;shadow=1;" parent="1" vertex="1">
          <mxGeometry x="282" y="1056" width="180" height="90" as="geometry">
            <mxRectangle x="70" y="240" width="70" height="30" as="alternateBounds" />
          </mxGeometry>
        </mxCell>
        <mxCell id="pWIoLYJeCG_TWPPdTEtt-128" value="" style="shape=tableRow;horizontal=0;startSize=0;swimlaneHead=0;swimlaneBody=0;collapsible=0;dropTarget=0;points=[[0,0.5],[1,0.5]];portConstraint=eastwest;top=0;left=0;right=0;bottom=1;fontStyle=0;shadow=1;" parent="pWIoLYJeCG_TWPPdTEtt-127" vertex="1">
          <mxGeometry y="30" width="180" height="30" as="geometry" />
        </mxCell>
        <mxCell id="pWIoLYJeCG_TWPPdTEtt-129" value="PK" style="shape=partialRectangle;connectable=0;top=0;left=0;bottom=0;right=0;fontStyle=0;overflow=hidden;whiteSpace=wrap;html=1;shadow=1;" parent="pWIoLYJeCG_TWPPdTEtt-128" vertex="1">
          <mxGeometry width="30" height="30" as="geometry">
            <mxRectangle width="30" height="30" as="alternateBounds" />
          </mxGeometry>
        </mxCell>
        <mxCell id="pWIoLYJeCG_TWPPdTEtt-130" value="Id" style="shape=partialRectangle;connectable=0;top=0;left=0;bottom=0;right=0;align=left;spacingLeft=6;fontStyle=4;overflow=hidden;whiteSpace=wrap;html=1;shadow=1;" parent="pWIoLYJeCG_TWPPdTEtt-128" vertex="1">
          <mxGeometry x="30" width="150" height="30" as="geometry">
            <mxRectangle width="150" height="30" as="alternateBounds" />
          </mxGeometry>
        </mxCell>
        <mxCell id="pWIoLYJeCG_TWPPdTEtt-131" value="" style="shape=tableRow;horizontal=0;startSize=0;swimlaneHead=0;swimlaneBody=0;collapsible=0;dropTarget=0;points=[[0,0.5],[1,0.5]];portConstraint=eastwest;top=0;left=0;right=0;bottom=0;fontStyle=0;shadow=1;" parent="pWIoLYJeCG_TWPPdTEtt-127" vertex="1">
          <mxGeometry y="60" width="180" height="30" as="geometry" />
        </mxCell>
        <mxCell id="pWIoLYJeCG_TWPPdTEtt-132" value="" style="shape=partialRectangle;connectable=0;top=0;left=0;bottom=0;right=0;editable=1;overflow=hidden;whiteSpace=wrap;html=1;fontStyle=0;shadow=1;" parent="pWIoLYJeCG_TWPPdTEtt-131" vertex="1">
          <mxGeometry width="30" height="30" as="geometry">
            <mxRectangle width="30" height="30" as="alternateBounds" />
          </mxGeometry>
        </mxCell>
        <mxCell id="pWIoLYJeCG_TWPPdTEtt-133" value="Name" style="shape=partialRectangle;connectable=0;top=0;left=0;bottom=0;right=0;align=left;spacingLeft=6;overflow=hidden;whiteSpace=wrap;html=1;fontStyle=0;shadow=1;" parent="pWIoLYJeCG_TWPPdTEtt-131" vertex="1">
          <mxGeometry x="30" width="150" height="30" as="geometry">
            <mxRectangle width="150" height="30" as="alternateBounds" />
          </mxGeometry>
        </mxCell>
        <mxCell id="pWIoLYJeCG_TWPPdTEtt-140" value="" style="edgeStyle=entityRelationEdgeStyle;fontSize=12;html=1;endArrow=ERmandOne;startArrow=ERmandOne;rounded=0;fontStyle=0;fontColor=#000000;shadow=1;" parent="1" source="pWIoLYJeCG_TWPPdTEtt-127" target="pWIoLYJeCG_TWPPdTEtt-137" edge="1">
          <mxGeometry width="100" height="100" relative="1" as="geometry">
            <mxPoint x="370" y="1080" as="sourcePoint" />
            <mxPoint x="370" y="940" as="targetPoint" />
            <Array as="points">
              <mxPoint x="410" y="960" />
            </Array>
          </mxGeometry>
        </mxCell>
        <mxCell id="pWIoLYJeCG_TWPPdTEtt-142" value="Price" style="shape=table;startSize=30;container=1;collapsible=1;childLayout=tableLayout;fixedRows=1;rowLines=0;fontStyle=0;align=center;resizeLast=1;html=1;shadow=1;" parent="1" vertex="1">
          <mxGeometry x="-331" y="867" width="180" height="120" as="geometry">
            <mxRectangle x="70" y="240" width="70" height="30" as="alternateBounds" />
          </mxGeometry>
        </mxCell>
        <mxCell id="pWIoLYJeCG_TWPPdTEtt-143" value="" style="shape=tableRow;horizontal=0;startSize=0;swimlaneHead=0;swimlaneBody=0;collapsible=0;dropTarget=0;points=[[0,0.5],[1,0.5]];portConstraint=eastwest;top=0;left=0;right=0;bottom=1;fontStyle=0;shadow=1;" parent="pWIoLYJeCG_TWPPdTEtt-142" vertex="1">
          <mxGeometry y="30" width="180" height="30" as="geometry" />
        </mxCell>
        <mxCell id="pWIoLYJeCG_TWPPdTEtt-144" value="PK" style="shape=partialRectangle;connectable=0;top=0;left=0;bottom=0;right=0;fontStyle=0;overflow=hidden;whiteSpace=wrap;html=1;shadow=1;" parent="pWIoLYJeCG_TWPPdTEtt-143" vertex="1">
          <mxGeometry width="30" height="30" as="geometry">
            <mxRectangle width="30" height="30" as="alternateBounds" />
          </mxGeometry>
        </mxCell>
        <mxCell id="pWIoLYJeCG_TWPPdTEtt-145" value="Id" style="shape=partialRectangle;connectable=0;top=0;left=0;bottom=0;right=0;align=left;spacingLeft=6;fontStyle=4;overflow=hidden;whiteSpace=wrap;html=1;shadow=1;" parent="pWIoLYJeCG_TWPPdTEtt-143" vertex="1">
          <mxGeometry x="30" width="150" height="30" as="geometry">
            <mxRectangle width="150" height="30" as="alternateBounds" />
          </mxGeometry>
        </mxCell>
        <mxCell id="pWIoLYJeCG_TWPPdTEtt-146" value="" style="shape=tableRow;horizontal=0;startSize=0;swimlaneHead=0;swimlaneBody=0;collapsible=0;dropTarget=0;points=[[0,0.5],[1,0.5]];portConstraint=eastwest;top=0;left=0;right=0;bottom=0;fontStyle=0;shadow=1;" parent="pWIoLYJeCG_TWPPdTEtt-142" vertex="1">
          <mxGeometry y="60" width="180" height="30" as="geometry" />
        </mxCell>
        <mxCell id="pWIoLYJeCG_TWPPdTEtt-147" value="" style="shape=partialRectangle;connectable=0;top=0;left=0;bottom=0;right=0;editable=1;overflow=hidden;whiteSpace=wrap;html=1;fontStyle=0;shadow=1;" parent="pWIoLYJeCG_TWPPdTEtt-146" vertex="1">
          <mxGeometry width="30" height="30" as="geometry">
            <mxRectangle width="30" height="30" as="alternateBounds" />
          </mxGeometry>
        </mxCell>
        <mxCell id="pWIoLYJeCG_TWPPdTEtt-148" value="Name" style="shape=partialRectangle;connectable=0;top=0;left=0;bottom=0;right=0;align=left;spacingLeft=6;overflow=hidden;whiteSpace=wrap;html=1;fontStyle=0;shadow=1;" parent="pWIoLYJeCG_TWPPdTEtt-146" vertex="1">
          <mxGeometry x="30" width="150" height="30" as="geometry">
            <mxRectangle width="150" height="30" as="alternateBounds" />
          </mxGeometry>
        </mxCell>
        <mxCell id="pWIoLYJeCG_TWPPdTEtt-149" style="shape=tableRow;horizontal=0;startSize=0;swimlaneHead=0;swimlaneBody=0;collapsible=0;dropTarget=0;points=[[0,0.5],[1,0.5]];portConstraint=eastwest;top=0;left=0;right=0;bottom=0;fontStyle=0;shadow=1;" parent="pWIoLYJeCG_TWPPdTEtt-142" vertex="1">
          <mxGeometry y="90" width="180" height="30" as="geometry" />
        </mxCell>
        <mxCell id="pWIoLYJeCG_TWPPdTEtt-150" value="" style="shape=partialRectangle;connectable=0;top=0;left=0;bottom=0;right=0;editable=1;overflow=hidden;whiteSpace=wrap;html=1;fontStyle=0;shadow=1;" parent="pWIoLYJeCG_TWPPdTEtt-149" vertex="1">
          <mxGeometry width="30" height="30" as="geometry">
            <mxRectangle width="30" height="30" as="alternateBounds" />
          </mxGeometry>
        </mxCell>
        <mxCell id="pWIoLYJeCG_TWPPdTEtt-151" value="Amount" style="shape=partialRectangle;connectable=0;top=0;left=0;bottom=0;right=0;align=left;spacingLeft=6;overflow=hidden;whiteSpace=wrap;html=1;fontStyle=0;shadow=1;" parent="pWIoLYJeCG_TWPPdTEtt-149" vertex="1">
          <mxGeometry x="30" width="150" height="30" as="geometry">
            <mxRectangle width="150" height="30" as="alternateBounds" />
          </mxGeometry>
        </mxCell>
        <mxCell id="pWIoLYJeCG_TWPPdTEtt-155" value="OrderItem" style="shape=table;startSize=30;container=1;collapsible=1;childLayout=tableLayout;fixedRows=1;rowLines=0;fontStyle=0;align=center;resizeLast=1;html=1;shadow=1;" parent="1" vertex="1">
          <mxGeometry x="50" y="808" width="180" height="150" as="geometry">
            <mxRectangle x="70" y="240" width="70" height="30" as="alternateBounds" />
          </mxGeometry>
        </mxCell>
        <mxCell id="pWIoLYJeCG_TWPPdTEtt-156" value="" style="shape=tableRow;horizontal=0;startSize=0;swimlaneHead=0;swimlaneBody=0;collapsible=0;dropTarget=0;points=[[0,0.5],[1,0.5]];portConstraint=eastwest;top=0;left=0;right=0;bottom=1;fontStyle=0;shadow=1;" parent="pWIoLYJeCG_TWPPdTEtt-155" vertex="1">
          <mxGeometry y="30" width="180" height="30" as="geometry" />
        </mxCell>
        <mxCell id="pWIoLYJeCG_TWPPdTEtt-157" value="PK" style="shape=partialRectangle;connectable=0;top=0;left=0;bottom=0;right=0;fontStyle=0;overflow=hidden;whiteSpace=wrap;html=1;shadow=1;" parent="pWIoLYJeCG_TWPPdTEtt-156" vertex="1">
          <mxGeometry width="30" height="30" as="geometry">
            <mxRectangle width="30" height="30" as="alternateBounds" />
          </mxGeometry>
        </mxCell>
        <mxCell id="pWIoLYJeCG_TWPPdTEtt-158" value="Id" style="shape=partialRectangle;connectable=0;top=0;left=0;bottom=0;right=0;align=left;spacingLeft=6;fontStyle=4;overflow=hidden;whiteSpace=wrap;html=1;shadow=1;" parent="pWIoLYJeCG_TWPPdTEtt-156" vertex="1">
          <mxGeometry x="30" width="150" height="30" as="geometry">
            <mxRectangle width="150" height="30" as="alternateBounds" />
          </mxGeometry>
        </mxCell>
        <mxCell id="pWIoLYJeCG_TWPPdTEtt-159" value="" style="shape=tableRow;horizontal=0;startSize=0;swimlaneHead=0;swimlaneBody=0;collapsible=0;dropTarget=0;points=[[0,0.5],[1,0.5]];portConstraint=eastwest;top=0;left=0;right=0;bottom=0;fontStyle=0;shadow=1;" parent="pWIoLYJeCG_TWPPdTEtt-155" vertex="1">
          <mxGeometry y="60" width="180" height="30" as="geometry" />
        </mxCell>
        <mxCell id="pWIoLYJeCG_TWPPdTEtt-160" value="FK" style="shape=partialRectangle;connectable=0;top=0;left=0;bottom=0;right=0;editable=1;overflow=hidden;whiteSpace=wrap;html=1;fontStyle=0;shadow=1;" parent="pWIoLYJeCG_TWPPdTEtt-159" vertex="1">
          <mxGeometry width="30" height="30" as="geometry">
            <mxRectangle width="30" height="30" as="alternateBounds" />
          </mxGeometry>
        </mxCell>
        <mxCell id="pWIoLYJeCG_TWPPdTEtt-161" value="&lt;font data-sider-select-id=&quot;6e754f8a-a8f9-4f6b-b19d-3cbe064c9ccc&quot;&gt;PriceId&lt;/font&gt;" style="shape=partialRectangle;connectable=0;top=0;left=0;bottom=0;right=0;align=left;spacingLeft=6;overflow=hidden;whiteSpace=wrap;html=1;fontStyle=0;shadow=1;" parent="pWIoLYJeCG_TWPPdTEtt-159" vertex="1">
          <mxGeometry x="30" width="150" height="30" as="geometry">
            <mxRectangle width="150" height="30" as="alternateBounds" />
          </mxGeometry>
        </mxCell>
        <mxCell id="pWIoLYJeCG_TWPPdTEtt-194" style="shape=tableRow;horizontal=0;startSize=0;swimlaneHead=0;swimlaneBody=0;collapsible=0;dropTarget=0;points=[[0,0.5],[1,0.5]];portConstraint=eastwest;top=0;left=0;right=0;bottom=0;fontStyle=0;shadow=1;" parent="pWIoLYJeCG_TWPPdTEtt-155" vertex="1">
          <mxGeometry y="90" width="180" height="30" as="geometry" />
        </mxCell>
        <mxCell id="pWIoLYJeCG_TWPPdTEtt-195" value="FK" style="shape=partialRectangle;connectable=0;top=0;left=0;bottom=0;right=0;editable=1;overflow=hidden;whiteSpace=wrap;html=1;fontStyle=0;shadow=1;" parent="pWIoLYJeCG_TWPPdTEtt-194" vertex="1">
          <mxGeometry width="30" height="30" as="geometry">
            <mxRectangle width="30" height="30" as="alternateBounds" />
          </mxGeometry>
        </mxCell>
        <mxCell id="pWIoLYJeCG_TWPPdTEtt-196" value="&lt;font data-sider-select-id=&quot;a091a051-58d0-43b5-b732-ed248fcec0d2&quot;&gt;SeatId&lt;/font&gt;" style="shape=partialRectangle;connectable=0;top=0;left=0;bottom=0;right=0;align=left;spacingLeft=6;overflow=hidden;whiteSpace=wrap;html=1;fontStyle=0;shadow=1;" parent="pWIoLYJeCG_TWPPdTEtt-194" vertex="1">
          <mxGeometry x="30" width="150" height="30" as="geometry">
            <mxRectangle width="150" height="30" as="alternateBounds" />
          </mxGeometry>
        </mxCell>
        <mxCell id="pWIoLYJeCG_TWPPdTEtt-234" style="shape=tableRow;horizontal=0;startSize=0;swimlaneHead=0;swimlaneBody=0;collapsible=0;dropTarget=0;points=[[0,0.5],[1,0.5]];portConstraint=eastwest;top=0;left=0;right=0;bottom=0;fontStyle=0;shadow=1;" parent="pWIoLYJeCG_TWPPdTEtt-155" vertex="1">
          <mxGeometry y="120" width="180" height="30" as="geometry" />
        </mxCell>
        <mxCell id="pWIoLYJeCG_TWPPdTEtt-235" value="FK" style="shape=partialRectangle;connectable=0;top=0;left=0;bottom=0;right=0;editable=1;overflow=hidden;whiteSpace=wrap;html=1;fontStyle=0;shadow=1;" parent="pWIoLYJeCG_TWPPdTEtt-234" vertex="1">
          <mxGeometry width="30" height="30" as="geometry">
            <mxRectangle width="30" height="30" as="alternateBounds" />
          </mxGeometry>
        </mxCell>
        <mxCell id="pWIoLYJeCG_TWPPdTEtt-236" value="&lt;font data-sider-select-id=&quot;f551d4bf-5065-43af-bbcb-7761390dcf9a&quot;&gt;OrderId&lt;/font&gt;" style="shape=partialRectangle;connectable=0;top=0;left=0;bottom=0;right=0;align=left;spacingLeft=6;overflow=hidden;whiteSpace=wrap;html=1;fontStyle=0;shadow=1;" parent="pWIoLYJeCG_TWPPdTEtt-234" vertex="1">
          <mxGeometry x="30" width="150" height="30" as="geometry">
            <mxRectangle width="150" height="30" as="alternateBounds" />
          </mxGeometry>
        </mxCell>
        <mxCell id="pWIoLYJeCG_TWPPdTEtt-203" value="" style="edgeStyle=entityRelationEdgeStyle;fontSize=12;html=1;endArrow=ERoneToMany;startArrow=ERmandOne;rounded=0;fontStyle=0;fontColor=#000000;shadow=1;" parent="1" source="pWIoLYJeCG_TWPPdTEtt-146" target="pWIoLYJeCG_TWPPdTEtt-156" edge="1">
          <mxGeometry width="100" height="100" relative="1" as="geometry">
            <mxPoint x="140" y="670" as="sourcePoint" />
            <mxPoint x="240" y="570" as="targetPoint" />
          </mxGeometry>
        </mxCell>
        <mxCell id="pWIoLYJeCG_TWPPdTEtt-204" value="Payment" style="shape=table;startSize=30;container=1;collapsible=1;childLayout=tableLayout;fixedRows=1;rowLines=0;fontStyle=0;align=center;resizeLast=1;html=1;shadow=1;" parent="1" vertex="1">
          <mxGeometry x="295" y="476" width="180" height="120" as="geometry">
            <mxRectangle x="70" y="240" width="70" height="30" as="alternateBounds" />
          </mxGeometry>
        </mxCell>
        <mxCell id="pWIoLYJeCG_TWPPdTEtt-205" value="" style="shape=tableRow;horizontal=0;startSize=0;swimlaneHead=0;swimlaneBody=0;collapsible=0;dropTarget=0;points=[[0,0.5],[1,0.5]];portConstraint=eastwest;top=0;left=0;right=0;bottom=1;fontStyle=0;shadow=1;" parent="pWIoLYJeCG_TWPPdTEtt-204" vertex="1">
          <mxGeometry y="30" width="180" height="30" as="geometry" />
        </mxCell>
        <mxCell id="pWIoLYJeCG_TWPPdTEtt-206" value="PK" style="shape=partialRectangle;connectable=0;top=0;left=0;bottom=0;right=0;fontStyle=0;overflow=hidden;whiteSpace=wrap;html=1;shadow=1;" parent="pWIoLYJeCG_TWPPdTEtt-205" vertex="1">
          <mxGeometry width="30" height="30" as="geometry">
            <mxRectangle width="30" height="30" as="alternateBounds" />
          </mxGeometry>
        </mxCell>
        <mxCell id="pWIoLYJeCG_TWPPdTEtt-207" value="Id" style="shape=partialRectangle;connectable=0;top=0;left=0;bottom=0;right=0;align=left;spacingLeft=6;fontStyle=4;overflow=hidden;whiteSpace=wrap;html=1;shadow=1;" parent="pWIoLYJeCG_TWPPdTEtt-205" vertex="1">
          <mxGeometry x="30" width="150" height="30" as="geometry">
            <mxRectangle width="150" height="30" as="alternateBounds" />
          </mxGeometry>
        </mxCell>
        <mxCell id="pWIoLYJeCG_TWPPdTEtt-217" style="shape=tableRow;horizontal=0;startSize=0;swimlaneHead=0;swimlaneBody=0;collapsible=0;dropTarget=0;points=[[0,0.5],[1,0.5]];portConstraint=eastwest;top=0;left=0;right=0;bottom=0;fontStyle=0;shadow=1;" parent="pWIoLYJeCG_TWPPdTEtt-204" vertex="1">
          <mxGeometry y="60" width="180" height="30" as="geometry" />
        </mxCell>
        <mxCell id="pWIoLYJeCG_TWPPdTEtt-218" value="FK" style="shape=partialRectangle;connectable=0;top=0;left=0;bottom=0;right=0;editable=1;overflow=hidden;whiteSpace=wrap;html=1;fontStyle=0;shadow=1;" parent="pWIoLYJeCG_TWPPdTEtt-217" vertex="1">
          <mxGeometry width="30" height="30" as="geometry">
            <mxRectangle width="30" height="30" as="alternateBounds" />
          </mxGeometry>
        </mxCell>
        <mxCell id="pWIoLYJeCG_TWPPdTEtt-219" value="&lt;font data-sider-select-id=&quot;c56b4373-fd1d-49cb-bec0-105d25845ae9&quot;&gt;StatusId&lt;/font&gt;" style="shape=partialRectangle;connectable=0;top=0;left=0;bottom=0;right=0;align=left;spacingLeft=6;overflow=hidden;whiteSpace=wrap;html=1;fontStyle=0;shadow=1;" parent="pWIoLYJeCG_TWPPdTEtt-217" vertex="1">
          <mxGeometry x="30" width="150" height="30" as="geometry">
            <mxRectangle width="150" height="30" as="alternateBounds" />
          </mxGeometry>
        </mxCell>
        <mxCell id="pWIoLYJeCG_TWPPdTEtt-220" style="shape=tableRow;horizontal=0;startSize=0;swimlaneHead=0;swimlaneBody=0;collapsible=0;dropTarget=0;points=[[0,0.5],[1,0.5]];portConstraint=eastwest;top=0;left=0;right=0;bottom=0;fontStyle=0;shadow=1;" parent="pWIoLYJeCG_TWPPdTEtt-204" vertex="1">
          <mxGeometry y="90" width="180" height="30" as="geometry" />
        </mxCell>
        <mxCell id="pWIoLYJeCG_TWPPdTEtt-221" style="shape=partialRectangle;connectable=0;top=0;left=0;bottom=0;right=0;editable=1;overflow=hidden;whiteSpace=wrap;html=1;fontStyle=0;shadow=1;" parent="pWIoLYJeCG_TWPPdTEtt-220" vertex="1">
          <mxGeometry width="30" height="30" as="geometry">
            <mxRectangle width="30" height="30" as="alternateBounds" />
          </mxGeometry>
        </mxCell>
        <mxCell id="pWIoLYJeCG_TWPPdTEtt-222" value="Date" style="shape=partialRectangle;connectable=0;top=0;left=0;bottom=0;right=0;align=left;spacingLeft=6;overflow=hidden;whiteSpace=wrap;html=1;fontStyle=0;shadow=1;" parent="pWIoLYJeCG_TWPPdTEtt-220" vertex="1">
          <mxGeometry x="30" width="150" height="30" as="geometry">
            <mxRectangle width="150" height="30" as="alternateBounds" />
          </mxGeometry>
        </mxCell>
        <mxCell id="pWIoLYJeCG_TWPPdTEtt-223" value="Payment Status" style="shape=table;startSize=30;container=1;collapsible=1;childLayout=tableLayout;fixedRows=1;rowLines=0;fontStyle=0;align=center;resizeLast=1;html=1;shadow=1;" parent="1" vertex="1">
          <mxGeometry x="-397" y="383" width="180" height="90" as="geometry">
            <mxRectangle x="70" y="240" width="70" height="30" as="alternateBounds" />
          </mxGeometry>
        </mxCell>
        <mxCell id="pWIoLYJeCG_TWPPdTEtt-224" value="" style="shape=tableRow;horizontal=0;startSize=0;swimlaneHead=0;swimlaneBody=0;collapsible=0;dropTarget=0;points=[[0,0.5],[1,0.5]];portConstraint=eastwest;top=0;left=0;right=0;bottom=1;fontStyle=0;shadow=1;" parent="pWIoLYJeCG_TWPPdTEtt-223" vertex="1">
          <mxGeometry y="30" width="180" height="30" as="geometry" />
        </mxCell>
        <mxCell id="pWIoLYJeCG_TWPPdTEtt-225" value="PK" style="shape=partialRectangle;connectable=0;top=0;left=0;bottom=0;right=0;fontStyle=0;overflow=hidden;whiteSpace=wrap;html=1;shadow=1;" parent="pWIoLYJeCG_TWPPdTEtt-224" vertex="1">
          <mxGeometry width="30" height="30" as="geometry">
            <mxRectangle width="30" height="30" as="alternateBounds" />
          </mxGeometry>
        </mxCell>
        <mxCell id="pWIoLYJeCG_TWPPdTEtt-226" value="Id" style="shape=partialRectangle;connectable=0;top=0;left=0;bottom=0;right=0;align=left;spacingLeft=6;fontStyle=4;overflow=hidden;whiteSpace=wrap;html=1;shadow=1;" parent="pWIoLYJeCG_TWPPdTEtt-224" vertex="1">
          <mxGeometry x="30" width="150" height="30" as="geometry">
            <mxRectangle width="150" height="30" as="alternateBounds" />
          </mxGeometry>
        </mxCell>
        <mxCell id="pWIoLYJeCG_TWPPdTEtt-227" value="" style="shape=tableRow;horizontal=0;startSize=0;swimlaneHead=0;swimlaneBody=0;collapsible=0;dropTarget=0;points=[[0,0.5],[1,0.5]];portConstraint=eastwest;top=0;left=0;right=0;bottom=0;fontStyle=0;shadow=1;" parent="pWIoLYJeCG_TWPPdTEtt-223" vertex="1">
          <mxGeometry y="60" width="180" height="30" as="geometry" />
        </mxCell>
        <mxCell id="pWIoLYJeCG_TWPPdTEtt-228" value="" style="shape=partialRectangle;connectable=0;top=0;left=0;bottom=0;right=0;editable=1;overflow=hidden;whiteSpace=wrap;html=1;fontStyle=0;shadow=1;" parent="pWIoLYJeCG_TWPPdTEtt-227" vertex="1">
          <mxGeometry width="30" height="30" as="geometry">
            <mxRectangle width="30" height="30" as="alternateBounds" />
          </mxGeometry>
        </mxCell>
        <mxCell id="pWIoLYJeCG_TWPPdTEtt-229" value="Name" style="shape=partialRectangle;connectable=0;top=0;left=0;bottom=0;right=0;align=left;spacingLeft=6;overflow=hidden;whiteSpace=wrap;html=1;fontStyle=0;shadow=1;" parent="pWIoLYJeCG_TWPPdTEtt-227" vertex="1">
          <mxGeometry x="30" width="150" height="30" as="geometry">
            <mxRectangle width="150" height="30" as="alternateBounds" />
          </mxGeometry>
        </mxCell>
        <mxCell id="pWIoLYJeCG_TWPPdTEtt-230" value="" style="edgeStyle=entityRelationEdgeStyle;fontSize=12;html=1;endArrow=ERmandOne;startArrow=ERmandOne;rounded=0;fontStyle=0;fontColor=#000000;shadow=1;" parent="1" source="pWIoLYJeCG_TWPPdTEtt-217" target="pWIoLYJeCG_TWPPdTEtt-227" edge="1">
          <mxGeometry width="100" height="100" relative="1" as="geometry">
            <mxPoint x="300" y="710" as="sourcePoint" />
            <mxPoint x="400" y="610" as="targetPoint" />
          </mxGeometry>
        </mxCell>
        <mxCell id="pWIoLYJeCG_TWPPdTEtt-232" value="" style="edgeStyle=entityRelationEdgeStyle;fontSize=12;html=1;endArrow=ERzeroToMany;startArrow=ERmandOne;rounded=0;fontStyle=0;fontColor=#000000;shadow=1;" parent="1" source="pWIoLYJeCG_TWPPdTEtt-99" target="pWIoLYJeCG_TWPPdTEtt-106" edge="1">
          <mxGeometry width="100" height="100" relative="1" as="geometry">
            <mxPoint x="780" y="830" as="sourcePoint" />
            <mxPoint x="880" y="730" as="targetPoint" />
            <Array as="points">
              <mxPoint x="750" y="730" />
              <mxPoint x="780" y="860" />
            </Array>
          </mxGeometry>
        </mxCell>
        <mxCell id="pWIoLYJeCG_TWPPdTEtt-233" value="" style="edgeStyle=entityRelationEdgeStyle;fontSize=12;html=1;endArrow=ERzeroToMany;startArrow=ERmandOne;rounded=0;entryX=1;entryY=0.5;entryDx=0;entryDy=0;fontStyle=0;fontColor=#000000;shadow=1;" parent="1" source="pWIoLYJeCG_TWPPdTEtt-106" target="pWIoLYJeCG_TWPPdTEtt-123" edge="1">
          <mxGeometry width="100" height="100" relative="1" as="geometry">
            <mxPoint x="500" y="960" as="sourcePoint" />
            <mxPoint x="600" y="860" as="targetPoint" />
            <Array as="points">
              <mxPoint x="470" y="930" />
            </Array>
          </mxGeometry>
        </mxCell>
        <mxCell id="pWIoLYJeCG_TWPPdTEtt-248" value="User" style="shape=table;startSize=30;container=1;collapsible=1;childLayout=tableLayout;fixedRows=1;rowLines=0;fontStyle=0;align=center;resizeLast=1;html=1;shadow=1;" parent="1" vertex="1">
          <mxGeometry x="-335" y="628" width="180" height="180" as="geometry">
            <mxRectangle x="70" y="240" width="70" height="30" as="alternateBounds" />
          </mxGeometry>
        </mxCell>
        <mxCell id="pWIoLYJeCG_TWPPdTEtt-249" value="" style="shape=tableRow;horizontal=0;startSize=0;swimlaneHead=0;swimlaneBody=0;collapsible=0;dropTarget=0;points=[[0,0.5],[1,0.5]];portConstraint=eastwest;top=0;left=0;right=0;bottom=1;fontStyle=0;shadow=1;" parent="pWIoLYJeCG_TWPPdTEtt-248" vertex="1">
          <mxGeometry y="30" width="180" height="30" as="geometry" />
        </mxCell>
        <mxCell id="pWIoLYJeCG_TWPPdTEtt-250" value="PK" style="shape=partialRectangle;connectable=0;top=0;left=0;bottom=0;right=0;fontStyle=0;overflow=hidden;whiteSpace=wrap;html=1;shadow=1;" parent="pWIoLYJeCG_TWPPdTEtt-249" vertex="1">
          <mxGeometry width="30" height="30" as="geometry">
            <mxRectangle width="30" height="30" as="alternateBounds" />
          </mxGeometry>
        </mxCell>
        <mxCell id="pWIoLYJeCG_TWPPdTEtt-251" value="Id" style="shape=partialRectangle;connectable=0;top=0;left=0;bottom=0;right=0;align=left;spacingLeft=6;fontStyle=4;overflow=hidden;whiteSpace=wrap;html=1;shadow=1;" parent="pWIoLYJeCG_TWPPdTEtt-249" vertex="1">
          <mxGeometry x="30" width="150" height="30" as="geometry">
            <mxRectangle width="150" height="30" as="alternateBounds" />
          </mxGeometry>
        </mxCell>
        <mxCell id="pWIoLYJeCG_TWPPdTEtt-252" value="" style="shape=tableRow;horizontal=0;startSize=0;swimlaneHead=0;swimlaneBody=0;collapsible=0;dropTarget=0;points=[[0,0.5],[1,0.5]];portConstraint=eastwest;top=0;left=0;right=0;bottom=0;fontStyle=0;shadow=1;" parent="pWIoLYJeCG_TWPPdTEtt-248" vertex="1">
          <mxGeometry y="60" width="180" height="30" as="geometry" />
        </mxCell>
        <mxCell id="pWIoLYJeCG_TWPPdTEtt-253" value="" style="shape=partialRectangle;connectable=0;top=0;left=0;bottom=0;right=0;editable=1;overflow=hidden;whiteSpace=wrap;html=1;fontStyle=0;shadow=1;" parent="pWIoLYJeCG_TWPPdTEtt-252" vertex="1">
          <mxGeometry width="30" height="30" as="geometry">
            <mxRectangle width="30" height="30" as="alternateBounds" />
          </mxGeometry>
        </mxCell>
        <mxCell id="pWIoLYJeCG_TWPPdTEtt-254" value="Name" style="shape=partialRectangle;connectable=0;top=0;left=0;bottom=0;right=0;align=left;spacingLeft=6;overflow=hidden;whiteSpace=wrap;html=1;fontStyle=0;shadow=1;" parent="pWIoLYJeCG_TWPPdTEtt-252" vertex="1">
          <mxGeometry x="30" width="150" height="30" as="geometry">
            <mxRectangle width="150" height="30" as="alternateBounds" />
          </mxGeometry>
        </mxCell>
        <mxCell id="pWIoLYJeCG_TWPPdTEtt-255" style="shape=tableRow;horizontal=0;startSize=0;swimlaneHead=0;swimlaneBody=0;collapsible=0;dropTarget=0;points=[[0,0.5],[1,0.5]];portConstraint=eastwest;top=0;left=0;right=0;bottom=0;fontStyle=0;shadow=1;" parent="pWIoLYJeCG_TWPPdTEtt-248" vertex="1">
          <mxGeometry y="90" width="180" height="30" as="geometry" />
        </mxCell>
        <mxCell id="pWIoLYJeCG_TWPPdTEtt-256" value="" style="shape=partialRectangle;connectable=0;top=0;left=0;bottom=0;right=0;editable=1;overflow=hidden;whiteSpace=wrap;html=1;fontStyle=0;shadow=1;" parent="pWIoLYJeCG_TWPPdTEtt-255" vertex="1">
          <mxGeometry width="30" height="30" as="geometry">
            <mxRectangle width="30" height="30" as="alternateBounds" />
          </mxGeometry>
        </mxCell>
        <mxCell id="pWIoLYJeCG_TWPPdTEtt-257" value="Second Name" style="shape=partialRectangle;connectable=0;top=0;left=0;bottom=0;right=0;align=left;spacingLeft=6;overflow=hidden;whiteSpace=wrap;html=1;fontStyle=0;shadow=1;" parent="pWIoLYJeCG_TWPPdTEtt-255" vertex="1">
          <mxGeometry x="30" width="150" height="30" as="geometry">
            <mxRectangle width="150" height="30" as="alternateBounds" />
          </mxGeometry>
        </mxCell>
        <mxCell id="pWIoLYJeCG_TWPPdTEtt-258" style="shape=tableRow;horizontal=0;startSize=0;swimlaneHead=0;swimlaneBody=0;collapsible=0;dropTarget=0;points=[[0,0.5],[1,0.5]];portConstraint=eastwest;top=0;left=0;right=0;bottom=0;fontStyle=0;shadow=1;" parent="pWIoLYJeCG_TWPPdTEtt-248" vertex="1">
          <mxGeometry y="120" width="180" height="30" as="geometry" />
        </mxCell>
        <mxCell id="pWIoLYJeCG_TWPPdTEtt-259" value="" style="shape=partialRectangle;connectable=0;top=0;left=0;bottom=0;right=0;editable=1;overflow=hidden;whiteSpace=wrap;html=1;fontStyle=0;shadow=1;" parent="pWIoLYJeCG_TWPPdTEtt-258" vertex="1">
          <mxGeometry width="30" height="30" as="geometry">
            <mxRectangle width="30" height="30" as="alternateBounds" />
          </mxGeometry>
        </mxCell>
        <mxCell id="pWIoLYJeCG_TWPPdTEtt-260" value="Phone" style="shape=partialRectangle;connectable=0;top=0;left=0;bottom=0;right=0;align=left;spacingLeft=6;overflow=hidden;whiteSpace=wrap;html=1;fontStyle=0;shadow=1;" parent="pWIoLYJeCG_TWPPdTEtt-258" vertex="1">
          <mxGeometry x="30" width="150" height="30" as="geometry">
            <mxRectangle width="150" height="30" as="alternateBounds" />
          </mxGeometry>
        </mxCell>
        <mxCell id="pWIoLYJeCG_TWPPdTEtt-261" style="shape=tableRow;horizontal=0;startSize=0;swimlaneHead=0;swimlaneBody=0;collapsible=0;dropTarget=0;points=[[0,0.5],[1,0.5]];portConstraint=eastwest;top=0;left=0;right=0;bottom=0;fontStyle=0;shadow=1;" parent="pWIoLYJeCG_TWPPdTEtt-248" vertex="1">
          <mxGeometry y="150" width="180" height="30" as="geometry" />
        </mxCell>
        <mxCell id="pWIoLYJeCG_TWPPdTEtt-262" value="" style="shape=partialRectangle;connectable=0;top=0;left=0;bottom=0;right=0;editable=1;overflow=hidden;whiteSpace=wrap;html=1;fontStyle=0;shadow=1;" parent="pWIoLYJeCG_TWPPdTEtt-261" vertex="1">
          <mxGeometry width="30" height="30" as="geometry">
            <mxRectangle width="30" height="30" as="alternateBounds" />
          </mxGeometry>
        </mxCell>
        <mxCell id="pWIoLYJeCG_TWPPdTEtt-263" value="Email" style="shape=partialRectangle;connectable=0;top=0;left=0;bottom=0;right=0;align=left;spacingLeft=6;overflow=hidden;whiteSpace=wrap;html=1;fontStyle=0;shadow=1;" parent="pWIoLYJeCG_TWPPdTEtt-261" vertex="1">
          <mxGeometry x="30" width="150" height="30" as="geometry">
            <mxRectangle width="150" height="30" as="alternateBounds" />
          </mxGeometry>
        </mxCell>
        <mxCell id="pWIoLYJeCG_TWPPdTEtt-270" value="" style="edgeStyle=entityRelationEdgeStyle;fontSize=12;html=1;endArrow=ERoneToMany;startArrow=ERmandOne;rounded=0;fontStyle=0;fontColor=#000000;shadow=1;" parent="1" source="pWIoLYJeCG_TWPPdTEtt-252" target="40A7lrvZ4hNjFSM1ReuE-5" edge="1">
          <mxGeometry width="100" height="100" relative="1" as="geometry">
            <mxPoint x="300" y="820" as="sourcePoint" />
            <mxPoint x="400" y="720" as="targetPoint" />
          </mxGeometry>
        </mxCell>
        <mxCell id="40A7lrvZ4hNjFSM1ReuE-1" value="Order" style="shape=table;startSize=30;container=1;collapsible=1;childLayout=tableLayout;fixedRows=1;rowLines=0;fontStyle=0;align=center;resizeLast=1;html=1;shadow=1;" parent="1" vertex="1">
          <mxGeometry x="-67" y="533" width="180" height="180" as="geometry">
            <mxRectangle x="70" y="240" width="70" height="30" as="alternateBounds" />
          </mxGeometry>
        </mxCell>
        <mxCell id="40A7lrvZ4hNjFSM1ReuE-2" value="" style="shape=tableRow;horizontal=0;startSize=0;swimlaneHead=0;swimlaneBody=0;collapsible=0;dropTarget=0;points=[[0,0.5],[1,0.5]];portConstraint=eastwest;top=0;left=0;right=0;bottom=1;fontStyle=0;shadow=1;" parent="40A7lrvZ4hNjFSM1ReuE-1" vertex="1">
          <mxGeometry y="30" width="180" height="30" as="geometry" />
        </mxCell>
        <mxCell id="40A7lrvZ4hNjFSM1ReuE-3" value="PK" style="shape=partialRectangle;connectable=0;top=0;left=0;bottom=0;right=0;fontStyle=0;overflow=hidden;whiteSpace=wrap;html=1;shadow=1;" parent="40A7lrvZ4hNjFSM1ReuE-2" vertex="1">
          <mxGeometry width="27.75" height="30" as="geometry">
            <mxRectangle width="27.75" height="30" as="alternateBounds" />
          </mxGeometry>
        </mxCell>
        <mxCell id="40A7lrvZ4hNjFSM1ReuE-4" value="Id" style="shape=partialRectangle;connectable=0;top=0;left=0;bottom=0;right=0;align=left;spacingLeft=6;fontStyle=4;overflow=hidden;whiteSpace=wrap;html=1;shadow=1;" parent="40A7lrvZ4hNjFSM1ReuE-2" vertex="1">
          <mxGeometry x="27.75" width="152.25" height="30" as="geometry">
            <mxRectangle width="152.25" height="30" as="alternateBounds" />
          </mxGeometry>
        </mxCell>
        <mxCell id="40A7lrvZ4hNjFSM1ReuE-5" value="" style="shape=tableRow;horizontal=0;startSize=0;swimlaneHead=0;swimlaneBody=0;collapsible=0;dropTarget=0;points=[[0,0.5],[1,0.5]];portConstraint=eastwest;top=0;left=0;right=0;bottom=0;fontStyle=0;shadow=1;" parent="40A7lrvZ4hNjFSM1ReuE-1" vertex="1">
          <mxGeometry y="60" width="180" height="30" as="geometry" />
        </mxCell>
        <mxCell id="40A7lrvZ4hNjFSM1ReuE-6" value="FK" style="shape=partialRectangle;connectable=0;top=0;left=0;bottom=0;right=0;editable=1;overflow=hidden;whiteSpace=wrap;html=1;fontStyle=0;shadow=1;" parent="40A7lrvZ4hNjFSM1ReuE-5" vertex="1">
          <mxGeometry width="27.75" height="30" as="geometry">
            <mxRectangle width="27.75" height="30" as="alternateBounds" />
          </mxGeometry>
        </mxCell>
        <mxCell id="40A7lrvZ4hNjFSM1ReuE-7" value="&lt;font data-sider-select-id=&quot;7b1836ee-4229-4129-9e53-be6c897035bb&quot;&gt;UserId&lt;/font&gt;" style="shape=partialRectangle;connectable=0;top=0;left=0;bottom=0;right=0;align=left;spacingLeft=6;overflow=hidden;whiteSpace=wrap;html=1;fontStyle=0;shadow=1;" parent="40A7lrvZ4hNjFSM1ReuE-5" vertex="1">
          <mxGeometry x="27.75" width="152.25" height="30" as="geometry">
            <mxRectangle width="152.25" height="30" as="alternateBounds" />
          </mxGeometry>
        </mxCell>
        <mxCell id="40A7lrvZ4hNjFSM1ReuE-8" style="shape=tableRow;horizontal=0;startSize=0;swimlaneHead=0;swimlaneBody=0;collapsible=0;dropTarget=0;points=[[0,0.5],[1,0.5]];portConstraint=eastwest;top=0;left=0;right=0;bottom=0;fontStyle=0;shadow=1;" parent="40A7lrvZ4hNjFSM1ReuE-1" vertex="1">
          <mxGeometry y="90" width="180" height="30" as="geometry" />
        </mxCell>
        <mxCell id="40A7lrvZ4hNjFSM1ReuE-9" value="FK" style="shape=partialRectangle;connectable=0;top=0;left=0;bottom=0;right=0;editable=1;overflow=hidden;whiteSpace=wrap;html=1;fontStyle=0;shadow=1;" parent="40A7lrvZ4hNjFSM1ReuE-8" vertex="1">
          <mxGeometry width="27.75" height="30" as="geometry">
            <mxRectangle width="27.75" height="30" as="alternateBounds" />
          </mxGeometry>
        </mxCell>
        <mxCell id="40A7lrvZ4hNjFSM1ReuE-10" value="&lt;font data-sider-select-id=&quot;ceeeb9e1-14f1-4168-9840-9fc734c629f0&quot;&gt;PaymentId&lt;/font&gt;" style="shape=partialRectangle;connectable=0;top=0;left=0;bottom=0;right=0;align=left;spacingLeft=6;overflow=hidden;whiteSpace=wrap;html=1;fontStyle=0;shadow=1;" parent="40A7lrvZ4hNjFSM1ReuE-8" vertex="1">
          <mxGeometry x="27.75" width="152.25" height="30" as="geometry">
            <mxRectangle width="152.25" height="30" as="alternateBounds" />
          </mxGeometry>
        </mxCell>
        <mxCell id="40A7lrvZ4hNjFSM1ReuE-11" style="shape=tableRow;horizontal=0;startSize=0;swimlaneHead=0;swimlaneBody=0;collapsible=0;dropTarget=0;points=[[0,0.5],[1,0.5]];portConstraint=eastwest;top=0;left=0;right=0;bottom=0;fontStyle=0;shadow=1;" parent="40A7lrvZ4hNjFSM1ReuE-1" vertex="1">
          <mxGeometry y="120" width="180" height="30" as="geometry" />
        </mxCell>
        <mxCell id="40A7lrvZ4hNjFSM1ReuE-12" value="FK" style="shape=partialRectangle;connectable=0;top=0;left=0;bottom=0;right=0;editable=1;overflow=hidden;whiteSpace=wrap;html=1;fontStyle=0;shadow=1;" parent="40A7lrvZ4hNjFSM1ReuE-11" vertex="1">
          <mxGeometry width="27.75" height="30" as="geometry">
            <mxRectangle width="27.75" height="30" as="alternateBounds" />
          </mxGeometry>
        </mxCell>
        <mxCell id="40A7lrvZ4hNjFSM1ReuE-13" value="EventId" style="shape=partialRectangle;connectable=0;top=0;left=0;bottom=0;right=0;align=left;spacingLeft=6;overflow=hidden;whiteSpace=wrap;html=1;fontStyle=0;shadow=1;" parent="40A7lrvZ4hNjFSM1ReuE-11" vertex="1">
          <mxGeometry x="27.75" width="152.25" height="30" as="geometry">
            <mxRectangle width="152.25" height="30" as="alternateBounds" />
          </mxGeometry>
        </mxCell>
        <mxCell id="i6q_cCeCUzospi-LzGO9-5" style="shape=tableRow;horizontal=0;startSize=0;swimlaneHead=0;swimlaneBody=0;collapsible=0;dropTarget=0;points=[[0,0.5],[1,0.5]];portConstraint=eastwest;top=0;left=0;right=0;bottom=0;fontStyle=0;shadow=1;" parent="40A7lrvZ4hNjFSM1ReuE-1" vertex="1">
          <mxGeometry y="150" width="180" height="30" as="geometry" />
        </mxCell>
        <mxCell id="i6q_cCeCUzospi-LzGO9-6" style="shape=partialRectangle;connectable=0;top=0;left=0;bottom=0;right=0;editable=1;overflow=hidden;whiteSpace=wrap;html=1;fontStyle=0;shadow=1;" parent="i6q_cCeCUzospi-LzGO9-5" vertex="1">
          <mxGeometry width="27.75" height="30" as="geometry">
            <mxRectangle width="27.75" height="30" as="alternateBounds" />
          </mxGeometry>
        </mxCell>
        <mxCell id="i6q_cCeCUzospi-LzGO9-7" value="Date" style="shape=partialRectangle;connectable=0;top=0;left=0;bottom=0;right=0;align=left;spacingLeft=6;overflow=hidden;whiteSpace=wrap;html=1;fontStyle=0;shadow=1;" parent="i6q_cCeCUzospi-LzGO9-5" vertex="1">
          <mxGeometry x="27.75" width="152.25" height="30" as="geometry">
            <mxRectangle width="152.25" height="30" as="alternateBounds" />
          </mxGeometry>
        </mxCell>
        <mxCell id="40A7lrvZ4hNjFSM1ReuE-14" value="" style="edgeStyle=entityRelationEdgeStyle;fontSize=12;html=1;endArrow=ERoneToMany;startArrow=ERmandOne;rounded=0;fontStyle=0;fontColor=#000000;shadow=1;" parent="1" source="40A7lrvZ4hNjFSM1ReuE-11" target="pWIoLYJeCG_TWPPdTEtt-159" edge="1">
          <mxGeometry width="100" height="100" relative="1" as="geometry">
            <mxPoint x="187.00000000000023" y="644" as="sourcePoint" />
            <mxPoint x="120" y="785" as="targetPoint" />
            <Array as="points">
              <mxPoint x="153" y="690" />
              <mxPoint x="134" y="649" />
            </Array>
          </mxGeometry>
        </mxCell>
        <mxCell id="i6q_cCeCUzospi-LzGO9-1" value="" style="edgeStyle=entityRelationEdgeStyle;fontSize=12;html=1;endArrow=ERmandOne;startArrow=ERmandOne;rounded=0;entryX=0;entryY=0.5;entryDx=0;entryDy=0;fontStyle=0;fontColor=#000000;shadow=1;" parent="1" source="40A7lrvZ4hNjFSM1ReuE-8" target="pWIoLYJeCG_TWPPdTEtt-220" edge="1">
          <mxGeometry width="100" height="100" relative="1" as="geometry">
            <mxPoint x="168.00000000000026" y="682.64" as="sourcePoint" />
            <mxPoint x="356.26" y="615.3600000000002" as="targetPoint" />
            <Array as="points">
              <mxPoint x="393.9" y="646.87" />
              <mxPoint x="371" y="552" />
            </Array>
          </mxGeometry>
        </mxCell>
        <mxCell id="i6q_cCeCUzospi-LzGO9-8" value="" style="edgeStyle=entityRelationEdgeStyle;fontSize=12;html=1;endArrow=ERoneToMany;startArrow=ERmandOne;rounded=0;fontStyle=0;fontColor=#000000;shadow=1;" parent="1" source="pWIoLYJeCG_TWPPdTEtt-8" target="40A7lrvZ4hNjFSM1ReuE-1" edge="1">
          <mxGeometry width="100" height="100" relative="1" as="geometry">
            <mxPoint x="59" y="383" as="sourcePoint" />
            <mxPoint x="-39.00000000000023" y="581" as="targetPoint" />
            <Array as="points">
              <mxPoint x="-8" y="621" />
              <mxPoint x="51" y="420" />
              <mxPoint x="-69" y="415" />
              <mxPoint x="62" y="562" />
            </Array>
          </mxGeometry>
        </mxCell>
      </root>
    </mxGraphModel>
  </diagram>
</mxfile>
